<?xml version="1.0" encoding="UTF-8"?>
<svg version="1.1" viewBox="0 0 1248 1380" width="1280" height="1280" xmlns="http://www.w3.org/2000/svg">
<path transform="translate(680,8)" d="m0 0h50l21 2 32 7 20 8 11 7 7 7 8 14 4 10 12 14 13 17 8 16 3 16v9l-3 17-8 20-9 16-14 19-9 10-7 8-9 10-11 11-8 7-10 9-11 9-16 13-11 8-19 14-25 16-13 8-15 9-24 14-11 6-32 16-28 13-18 8-28 12-23 10-33 12-24 8-19 6-41 12-26 7-32 8-26 6-40 7-50 6-16 1h-47l-15-2-24-6-17-9-11-9-8-9-8-14-4-13-2-13 1-19 2-14-2-9-10-24-2-10v-11l3-14 7-18 9-17 10-14 12-14 11-12 10-10h2v-2l8-7 13-11 20-15 12-8 14-10 25-16 20-12 21-12 16-8 17-9 50-24 24-10 34-13 19-7 36-12 23-7 24-7 33-9 39-8 29-5 43-6 25-3zm1 8-14 6-11 4-45 18-16 7-13 5-25 10-23 9-32 13-28 11-36 15-27 11-36 15-44 18-42 18-27 11-12 5-23 10-19 8-27 12-43 19-25 11-13 9-3 4 1 2 23-10 28-11 25-10 38-15 12-5 26-10 20-8 17-7 16-6 28-11 115-46 83-33 29-12 32-12 28-11 21-8 11-5 16-6 29-12 4-3-1-4-8-5zm73 15-12 6-16 6-38 14-37 14-38 14-36 14-26 10-23 9-17 7-16 6-60 23-60 24-27 11-23 9-13 5-20 8-39 16-28 12-36 15-50 20-42 18-21 10-3 4 5 1 50-20 42-16 40-15 21-8 23-8 13-5 15-6 33-12 20-8 15-5 15-6 24-9 13-5 10-4 17-6 20-8 17-6 12-5 24-9 12-5 13-5 21-8 27-10 45-18 36-14 58-22 40-16 14-6 1-4-5-5-3-2zm-208 3-17 6-25 11-53 22-34 14-45 19-45 19-24 10-29 12-26 11-27 12-6 4-1 5 9-1 19-7 40-16 16-6 51-20 46-18 19-8 40-16 23-9 25-10 33-13 15-6 14-8v-4l-9-3zm256 23-16 5-31 12-16 6-42 16-19 8-21 8-14 6-10 4-36 14-55 22-27 11-24 10-16 6-10 5-20 8-16 6-25 10-28 12-15 6-26 11-20 8-10 5-13 5-68 29-27 12-75 32-20 9-16 8-10 6-1 2 7-1 25-11 62-24 68-25 18-7 39-15 38-14 18-7 26-10 23-9 24-9 24-10 16-6 12-5 21-8 16-6 12-5 33-13 36-15 18-7 9-4 10-4 12-5 32-13 19-8 24-10 25-11 25-10 19-8 20-9 5-6-1-5-2-2zm28 13-4 12-8 15-12 16-9 10-15 15-22 18-14 11-15 11-17 11-13 8-25 15-24 14-18 10-48 24-30 14-27 12-33 14-19 8-16 6-20 7-12 4-11 4-36 12-36 11-24 7-30 8-39 8-28 5-47 6-17 1h-34l-18-2-20-5-10-4-5-3h-5l3 5 10 6 11 4 19 5 12 2h48l28-3 44-6 46-9 41-9 44-12 24-7 36-12 19-7 40-14 15-6 13-5 19-8 21-9 20-9 24-11 48-24 14-8 8-4 14-8 20-12 26-16 14-10 12-9 13-10 11-9 17-16 8-8 9-11 10-16 5-16-1-16-3-5zm-28 24-20 8-25 11-15 7-34 15-11 5-23 10-20 9-49 22-18 8-26 11-36 16-20 9-14 6-15 7-27 12-19 8-13 6-7 3-16 7-8 4-28 13-24 11-15 7-27 12-53 24-29 14-28 13-9 3v2l17-4 22-9 19-8 21-9 27-11 24-10 33-13 22-9 24-10 28-12 15-6 17-7 8-4 10-4 19-8 15-6 34-15 16-7 8-4 28-13 10-4 10-5 10-4 30-14 10-5 23-11 28-13 12-6 48-23 27-14 12-8 5-5v-2z" fill="#442E2F"/>
<path transform="translate(942,247)" d="m0 0 25 5 32 8 24 7 36 13 17 7 19 10 20 12 14 11 10 9 7 7 7 10 7 14 2 18-1 9v13l11 31 1 5v19l-4 14-4 8-8 11-12 12-14 11-18 12-15 9-23 12-24 11-27 10-24 8-32 10-27 7-21 5-34 7-37 6-51 6-28 2-30 1h-76l-45-2-21-2-47-6-41-8-10-3 1-3 21-8 39-16 23-10 26-11 29-14 16-8 20-11 15 1 23 2 22 1h95l26-1 73-7 55-9 32-7 23-6 14-5 12-4 19-8 17-8 18-11 13-10 12-12 7-11 6-15v-3l-4 2v2h-2l-2 4-15 15-14 10-18 11-17 9-20 8-19 7-36 10-24 5-35 6-50 6-27 2-49 2h-71l-43-2v-4l18-10 24-15 15-10 8-6h12l58 5 30 2 54 3 27 1h52l16-2 2-1-31-4-60-5-35-4-47-4-20-3-27-2-7-1 5-5 17-12 5-5 101 2 162 4h25l7-4h2v-2l-24-1-53-3-120-4-76-4-6-1 1-3 11-9 10-10 37 3 53 3 69 3 72 4h47l2-1 1-4-81-7-56-4-32-3-57-4-34-3-4-1 2-4 9-10 5-6 27 2 68 4 50 4 79 4 16 1-1-8-2-1-38-3-47-5-42-4-26-3-45-4-26-3 2-5 6-10 1-1 22 1 44 4 62 4 34 3 30 1-2-5-6-3-21-3-125-12-30-4 1-5 3-9 42 3 42 2 39 2-2-5-4-3-12-5-14-3-67-6-17-1-2-1z" fill="#432C2D"/>
<path transform="translate(897,185)" d="m0 0 4 4 10 15 7 14 5 17 1 16-2 14-6 21-12 23-12 17-8 10-12 14-11 12-7 7-8 7-13 12-14 11-13 11-19 14-13 9-36 24-19 12-15 9-22 13-28 15-48 24-26 12-36 15-57 22-20 7-36 12-34 10-35 8-36 7-37 5-23 2h-40l-17-2-27-6-18-7-13-7-14-11-9-10-9-14-6-14-4-19v-25l3-15 4 2 11 8 20 8 27 5 8 1h24l72-6 30-5 19-3 24-5 44-9 34-9 25-7 26-8 42-14 22-8 21-8 18-7 15-6 23-10 26-12 19-10 15-8 12-6 17-10 11-6 17-11 12-8 20-14 13-10 14-11 13-11 14-12 28-28 9-11 7-8 13-19 8-16 5-15z" fill="#422B2C"/>
<path transform="translate(1163,533)" d="m0 0h2l1 11v16l-3 14-4 13-8 14-10 13-14 14-17 13-15 10-18 10-25 12-27 10-17 6-22 7-29 8-28 7-35 7-40 6-47 5-24 2-19 1h-79l-31-2-49-5-44-7-38-9-25-7-29-10-28-11-19-9-23-14-15-11-14-11-1-3 29-7 26-7 19-5 9 1 28 10 36 11 32 8 24 5 30 5 28 4 56 4 20 1h67l67-4 27-3 41-6 43-9 32-8 21-6 26-8 19-7 20-8 16-7 22-12 17-11 9-7 10-9 8-8 7-10 4-6z" fill="#432C2D"/>
<path transform="translate(942,247)" d="m0 0 25 5 32 8 24 7 36 13 17 7 19 10 20 12 14 11 10 9 7 7 7 10 7 14 2 18-1 9v14l-4 1-4 2v2h-2l-2 4-15 15-14 10-18 11-17 9-20 8-19 7-36 10-24 5-35 6-50 6-27 2-49 2h-71l-43-2v-4l18-10 24-15 15-10 8-6h12l58 5 30 2 54 3 27 1h52l16-2 2-1-31-4-60-5-35-4-47-4-20-3-27-2-7-1 5-5 17-12 5-5 101 2 162 4h25l7-4h2v-2l-24-1-53-3-120-4-76-4-6-1 1-3 11-9 10-10 37 3 53 3 69 3 72 4h47l2-1 1-4-81-7-56-4-32-3-57-4-34-3-4-1 2-4 9-10 5-6 27 2 68 4 50 4 79 4 16 1-1-8-2-1-38-3-47-5-42-4-26-3-45-4-26-3 2-5 6-10 1-1 22 1 44 4 62 4 34 3 30 1-2-5-6-3-21-3-125-12-30-4 1-5 3-9 42 3 42 2 39 2-2-5-4-3-12-5-14-3-67-6-17-1-2-1z" fill="#463031"/>
<path transform="translate(1050,835)" d="m0 0h35l2 1 11 25 13 28 32 68 18 38 9 20 8 16 16 34 13 28 11 24 10 23 6 9 5 6-1 2h-78l-4-10-18-44-1-2-136-1-4 10-14 34-4 13h-79l2-4 7-10 16-36 16-34 9-20 15-33 18-39 15-33 17-36 15-33 17-37zm11 14-3 3-17 37-7 16-7 14-11 25-7 14-7 16-7 15-9 20-7 15-16 35-15 33-17 37-6 13 23 1h17l4-2 14-33 8-19 1-3h60l95 1 11 28 9 21 2 6 6 1 37-1-1-5-19-41-15-33-18-38-13-28-15-32-12-26-17-36-16-33-9-20-1-1z" fill="#4A3435"/>
<path transform="translate(890,833)" d="m0 0 1 3-2 5-1 62-5-2-2-1h-80l-1 33v135l1 80 2 5 3 2v2h-78l1-4 3-3v-250h-20l-64 1-2 3-1-3v-62l-1-3h-2v-2h242zm-229 16v37h85v256l7 1 33-1v-257h87v-36z" fill="#4A3536"/>
<path transform="translate(419,829)" d="m0 0h27l18 3 25 7 19 8 17 10 16 12 19 19 13 17 10 18 8 20 5 19 3 22v28l-4 24-7 21-8 16-11 18-8 10-9 10-10 10-13 10-20 12-17 8-19 6-18 3-10 1h-28l-22-3-18-5-21-9-14-8-16-12-13-12-8-8-13-17-11-19-6-14-7-25-3-21v-22l2-17 5-21 6-17 12-23 10-14 11-13 13-13 18-13 20-11 21-8 21-5zm-1 15-25 5-21 7-19 10-12 8-13 11-13 13-10 14-10 18-7 16-6 19-2 14v35l4 21 7 20 10 19 10 14 9 10 14 14 15 11 18 10 15 6 19 5 14 2h32l20-3 20-6 23-11 17-12 12-11 10-10 10-13 11-19 8-20 5-22 1-7v-29l-3-21-4-14-7-18-7-13-9-13-11-13-7-7-14-11-14-9-16-8-17-6-23-5-8-1z" fill="#493334"/>
<path transform="translate(116,834)" d="m0 0 78 1-1 6-3 5-1 82-1 155-2 15-5 14-7 11-10 12-14 11-16 8-13 4-11 2h-27l-16-3-16-7-13-9-11-11-7-10-9-16-5-13-3-4v-2l19-5 20-7 14-7 9-8h2v14l3 9 6 7 9 4 14 1 10-2 6-4 3-4 2-11v-228l-4-8zm57 14-39 1v230l-2 9-4 6-1 3-4 2-8 5-7 2-17 1-13-2-10-5-7-7-6-10-6 1-17 7-9 3 2 6 8 15 9 10 5 5 10 7 11 5 13 3h31l16-4 14-7 11-9 7-7 8-13 4-11 2-13 1-160v-71z" fill="#4A3536"/>
<path transform="translate(426,881)" d="m0 0h12l15 2 16 4 16 7 14 9 10 8 9 9 10 14 8 15 6 18 2 10 1 10v17l-3 19-6 18-7 13-9 13-9 10-8 8-15 10-15 7-18 5-14 2h-22l-17-3-16-6-14-7-12-9-12-11-10-13-7-11-7-16-5-19-1-8v-19l2-14 5-17 9-19 10-14 9-10 11-10 11-7 12-6 15-5 14-3zm1 15-20 3-15 5-14 8-10 8-7 6-9 11-7 11-5 10-5 15-3 16v14l4 20 5 13 7 13 9 12 11 11 10 7 12 7 13 5 16 3h23l14-2 12-4 16-8 13-10 11-11 7-10 9-17 5-17 1-6v-25l-3-16-6-16-6-11-8-10-7-8-13-10-16-9-16-5-9-2z" fill="#4A3435"/>
<path transform="translate(420,858)" d="m0 0h24l23 4 18 6 16 8 14 9 11 9 11 11 11 15 9 17 7 20 3 12 2 20v13l-2 20-4 17-8 20-9 15-11 14-10 10-16 12-19 11-15 6-21 5-14 2h-16l-20-3-15-4-19-8-16-9-13-10-17-17-9-13-9-17-8-24-3-16v-31l2-14 6-20 7-16 6-11 10-14 11-12 12-10 14-9 15-8 18-6 14-3zm8 10-26 3-17 5-16 8-12 8-11 9-11 11-11 15-10 19-5 15-3 12-2 16v15l3 21 8 24 8 15 7 10 9 10 9 9 15 11 12 7 20 8 20 4h32l17-3 17-6 16-8 14-10 14-12 12-14 9-15 5-11 6-21 2-14v-23l-2-16-7-24-8-16-7-11-12-13-9-9-15-11-16-8-14-5-20-4-10-1z" fill="#4F3A3B"/>
<path transform="translate(1067,863)" d="m0 0 4 4 10 23 6 12 11 24 16 34 12 27 7 15 19 41 15 32 13 28 8 17v4h-10l-4-8-16-36-4-6-170-1-10 21-9 20-4 9-2 2h-9l-1-3 8-16 14-31 12-26 16-35 12-27 12-26 18-41 15-33zm0 23-4 9-16 35-16 36-13 29-15 33-7 16-7 14-1 6h127l34-1-3-9-16-35-13-28-15-33-11-23-13-30-7-16-2-3z" fill="#4D3839"/>
<path transform="translate(1015,1222)" d="m0 0h92l1 1v30l-23-1h-36l-1 23h54v29l-54-1v27l56-1 4-2 1 1v30h-93v-131zm44 7-34 1-1 120 2 1h76v-14l-58-1-2-1v-38l53-1v-14l-54-1 1-36h36l23-1v-15z" fill="#604D4D"/>
<path transform="translate(1191,1220)" d="m0 0 17 1 10 3 8 5 7 6 6 10 4 12v5l-24 5h-5l1-6-6-7-9-4h-12l-10 4-3 5 1 6 5 5 9 4 19 4 16 6 9 7 6 7 6 12 1 6v8l-3 10-6 9-4 5-10 7-11 4-13 2h-13l-17-4-13-7-7-7-6-12-5-14 1-1 20-2 8-2h4l2 11 7 6 8 3h14l10-5 3-5-1-7-8-5-13-4-16-4-16-8-8-7-7-9-3-12v-11l3-10 6-8 7-7 8-5 12-4zm-2 7-12 3-8 4-10 8-5 7-2 7v13l3 8 7 8 9 6 13 5 22 6 12 6 4 5 1 9-5 9-8 6-7 2h-14l-10-3-9-6-6-8-10 1-3 2 2 9 6 8 9 6 12 5 4 1h22l13-5 9-6 7-8 4-9v-15l-4-8-8-9-16-8-26-6-10-5-6-7-1-9 3-7 4-5 10-4h17l10 4 5 4 6 7 9-1 2-2-1-7-6-8-8-7-8-4-11-2z" fill="#5E4B4C"/>
<path transform="translate(1067,919)" d="m0 0 3 1 24 54 12 26 15 33 6 13v3h-117v-3l13-30 15-33 14-31 11-24zm1 33-3 4-9 20-7 15-11 26-6 14v4h72l-1-6-15-34-14-32-4-10z" fill="#493334"/>
<path transform="translate(677,863)" d="m0 0h60l120 1 1 7-1 1-84 1-1 1v250l-11 1-1-1 1-71v-180l-84-1-1-5z" fill="#584445"/>
<path transform="translate(869,1222)" d="m0 0h64l12 2 10 5 9 7 7 9 5 11 2 13-1 15-4 10-4 6-5 5-7 6 1 6 15 25 7 11 3 5h-37l-10-19-9-15-4-4-22-1 1 39h-34l1-45zm39 7-29 1-1 1-1 65v53l1 1h16v-39l37 1 1 5 12 21 6 10 3 3h13l2-1-1-5-11-18-7-11-4-9 6-2 9-7 6-7 4-9 1-11-1-11-4-9-7-9-10-8-10-4-7-1z" fill="#564243"/>
<path transform="translate(301,1222)" d="m0 0h92v31l-61-1v24l56-1 1 5v27h-4l-3-1-50-1 1 53h-35l2-2 1-4zm8 7-1 119 1 2 7 1 9-1v-52h55v-15l-55-1v-37h58l2-1v-15z" fill="#635051"/>
<path transform="translate(79,1220)" d="m0 0h13l4 6 5 11 17 36 16 36 11 26 8 18 3 5h-36l-3-8-5-14-11-1h-44l-5 12-4 10-1 1h-34l9-19 16-36 13-29 11-25 10-23 4-5zm3 7-4 4-7 14-10 24-18 40-8 17-9 20 1 4 12 1 4-2 8-19v-2h65l5 11 4 10 1 1h15l2-3-5-10-9-21-11-25-13-28-11-24-6-11z" fill="#5A4747"/>
<path transform="translate(483,1219)" d="m0 0h8l5 4 8 16 13 30 13 29 7 15 13 30 7 15h-36l-8-22-7-1h-49l-1 6-5 13-2 4h-35l8-16 17-38 15-33 9-19 12-27 5-5zm3 7-4 2-8 16-15 33-17 37-13 28-2 4 1 4 13 1 4-4 8-19 63-1 2 1 8 20 2 2 7 1 9-1-1-6-17-38-14-30-17-40-6-9z" fill="#5C4849"/>
<path transform="translate(150,865)" d="m0 0h9v217l-2 13-6 12-9 10-10 7-12 5-14 3h-20l-16-4-12-6-8-7-7-10 1-4 6-1 10 11 10 6 12 4 7 1h13l16-3 12-6 8-6 7-10 4-13z" fill="#523D3E"/>
<path transform="translate(182,1222)" d="m0 0h31l1 1v46l-1 61 59-1 1 3-1 26h-90l-1-135zm9 7-1 1-1 119 1 1 26 1h48l1-1v-13l-54-1-4-1-1-105-5-1z" fill="#614E4F"/>
<path transform="translate(754,1221)" d="m0 0h22l14 3 14 7 11 9 8 9 8 13 4 10 2 8v23l-3 11-4 10-9 13-7 7-8 6-12 6-13 4-5 1h-24l-12-3-16-8-8-6-9-9-8-13-5-13-2-10v-15l3-14 8-16 8-10 9-9 11-7 12-5zm6 7-12 2-13 5-12 8-11 11-6 10-4 10-2 8v20l3 11 7 14 7 9 12 9 13 6 10 3 16 1 13-2 14-5 11-7 10-9 7-11 5-12 2-8v-18l-3-12-7-14-11-12-8-7-14-7-7-2-8-1z" fill="#5A4747"/>
<path transform="translate(885,1233)" d="m0 0h21l27 1 10 3 8 5 5 5 5 6 4 11v16l-3 7-9 10-8 6-7 2 4 10 11 18 7 11 1 3-5-1-11-17-10-17-3-7h-44v40h-5l-1-2v-108zm16 5-11 1-2 1v60h46l5-2-1-2-42-1-1-1-1-49h34l11 2 7 4 6 7 3 10-1 11-6 10-3 4 1 2 8-5 6-9 1-3v-15l-3-8-9-10-8-5-11-2zm19 13-18 1-1 1v36h35l5-3 6-7 1-2v-12l-4-6-6-5-4-2z" fill="#6B595A"/>
<path transform="translate(652,1222)" d="m0 0h7l1 2-1 4-1 91-2 15-4 8-9 10-9 5-9 3h-20l-12-4-8-6-6-7-6-13v-6l23-8 5-2 1 2 1 9 3 5 7 3h6l4-2 2-4 1-14v-90zm-12 7-5 1-1 3-1 86-2 12-5 6-5 2h-12l-8-4-7-8-5-1-7 3 1 7 4 6 7 6 12 5 12 1 10-3 12-7 7-8 3-8 1-8v-90l-1-1z" fill="#5D494A"/>
<path transform="translate(765,1242)" d="m0 0 15 2 14 7 11 11 5 8 3 9 1 7v10l-2 11-6 12-9 10-10 7-14 4h-14l-13-3-11-6-9-9-6-10-4-13v-15l4-13 7-11 9-9 12-6 7-2zm-8 8-10 3-9 7-5 5-6 9-3 9v19l4 10 9 10 5 4 12 6 5 1h11l9-2 11-6 8-7 5-8 3-9 1-11-2-11-7-13-10-9-12-6-4-1z" fill="#584445"/>
<path transform="translate(758,1232)" d="m0 0h15l9 2 14 7 9 7 9 10 8 16 2 15-1 16-5 13-8 11-4 5-10 7-11 5-8 2-9 1h-9l-15-3-16-8-12-12-8-15-2-7-1-8v-11l2-11 7-14 11-13 8-7 12-5zm-3 5-13 4-10 6-8 7-7 10-4 8-2 9v21l4 13 7 11 5 6 11 7 15 5 9 1h11l15-4 12-7 8-8 6-10 4-13 1-5v-14l-2-10-5-11-6-8-7-7-11-7-7-3-5-1z" fill="#635152"/>
<path transform="translate(1030,1234)" d="m0 0h23l42 1v3l-10 1-49 1-1 47h54l-1 4h-53l1 50 46 1h14l1 4-1 1h-62l-4-1-1-9v-102z" fill="#736263"/>
<path transform="translate(899,1244)" d="m0 0h29l11 2 7 4 7 8 3 10-1 11-9 15 4-1-3 3-6 3-4-1 1-1-42-1-2-2v-49zm21 7-18 1-1 1v36h35l5-3 6-7 1-2v-12l-4-6-6-5-4-2z" fill="#5D4A4A"/>
<path transform="translate(486,1234)" d="m0 0 4 4 10 22 8 20 17 37 12 27v3l-4-1-3-5-9-19-5-10-8-20-13-31-7-15v-2l-4 3-11 24-11 26-9 21h60l5 1v2h-65l-1-1-13 26-5-1 9-20 19-42 17-37z" fill="#635051"/>
<path transform="translate(1190,1231)" d="m0 0h8l12 3 9 6 7 7 2 6-5-3-7-7-7-4-8-2h-13l-10 3-8 5-6 7-2 7 1 11 6 8 12 6 19 5 13 4 11 6 5 5 3 5 1 4v11l-3 7-6 8-11 7-6 2-8 1h-10l-13-3-10-6-6-5-3-7 5 2 9 8 10 4 16 2 12-2 10-5 6-7 3-9-1-9-4-6-8-6-14-5-21-6-12-6-8-9-2-5v-16l4-8 4-5 8-5z" fill="#716060"/>
<path transform="translate(83,1234)" d="m0 0h2l10 19 27 60 12 29v3l-5-1-9-21-3-5-8-21-17-37-6-14v-2h-3l-2 5-7 14-11 27-12 29-12 24-3 3h-3l3-9 13-28 12-27 15-35z" fill="#624F50"/>
<path transform="translate(83,1256)" d="m0 0h2l13 28 11 26-1 2h-47l-1-2 11-27 11-25zm1 18-8 16-6 13 2 2h26l-5-15-8-16z" fill="#564243"/>
<path transform="translate(486,1257)" d="m0 0h2l11 25 11 27v2l-2 1h-45l-1-3 12-27 7-16zm-1 18-13 28 3 2h26l-2-6-8-19-2-5z" fill="#574243"/>
<path transform="translate(314,1234)" d="m0 0h65l2 4-2 1h-60l-1 49h56v3l-6 1-49 1v52l-5-1z" fill="#FEFEFE"/>
<path transform="translate(642,1234)" d="m0 0 4 1v54l-1 32-2 11-5 8-7 6-10 3h-10l-10-3-10-7-3-6 2-1 10 8 7 3 10 1 9-2 8-5 3-5 1-4 1-13 1-80z" fill="#746364"/>
<path transform="translate(195,1235)" d="m0 0 5 1v105l58 1v5l-62-1-1-1z" fill="#5E4B4C"/>
<path transform="translate(1190,1231)" d="m0 0h8l12 3 9 6 7 7 2 6-5-3-7-7-7-4-8-2h-13l-10 3-8 5-6 7-2 7 1 11 2 4-4 1-3-6v-16l4-8 4-5 8-5z" fill="#6A5859"/>
<path transform="translate(377,1234)" d="m0 0 4 2v2l-2 1h-60l-1 47h-1l-1-44h-1v-7z" fill="#463031"/>
<path transform="translate(317,1288)" d="m0 0h57v3l-6 1-49 1-1 8h-1l-1-8-1-4z" fill="#756465"/>
<path transform="translate(1045,1287)" d="m0 0h44l-1 4h-53l3-1v-2h7z" fill="#E7E4E5"/>
<path transform="translate(454,1318)" d="m0 0h59l5 1v2h-55l-8-1z" fill="#9C9090"/>
<path transform="translate(314,1234)" d="m0 0h14v1h-13l2 3 1 50h-2v-2h-2z" fill="#F3F2F2"/>
<path transform="translate(57,1318)" d="m0 0h55l3 1v2h-63v-2z" fill="#B9B1B1"/>
<path transform="translate(877,1229)" d="m0 0 2 2-1 65v54h-2v-120z" fill="#FEFEFE"/>
<path transform="translate(377,1234)" d="m0 0 4 2v2l-2 1h-60v-1l12-1h40l2-2z" fill="#FEFEFE"/>
<path transform="translate(945,1290)" d="m0 0h2l-1 4 4-1-3 3-6 3-4-1 1-1-42-1v-1l41-1z" fill="#FEFEFE"/>
<path transform="translate(317,1309)" d="m0 0h1l1 14v22l-5-1 1-19h1z" fill="#7C6D6D"/>
<path transform="translate(1162,1273)" d="m0 0 5 2 5 5-1 3-4-1-5-6z" fill="#928586"/>
<path transform="translate(377,1234)" d="m0 0 4 2v2l-5 1v-1l-5-1 2-2z" fill="#F6F5F5"/>
</svg>
